REM DIRINDEX 1\2\6,1\2\7,1\2\8,1\3\9,1\3\10,1\3\11,1\4\12,1\4\13,1\4\14,1\5\15,1\5\16,1\5\17,1\5\18
REM DIRNAME folder01,folder02,folder03,folder04,folder05,folder06,folder07,folder08,folder09,folder10,folder11,folder12,folder13,folder14,folder15,folder16,folder17,folder18
TITLE ""
FILE "" MP3
  TRACK 01 AUDIO
    TITLE "16:cjc019_7383"
    INDEX 01 00:00:00
  TRACK 02 AUDIO
    TITLE "0:"
    INDEX 01 00:01:01
  TRACK 03 AUDIO
    TITLE "18:cjc019_7384"
    INDEX 01 00:01:56
  TRACK 04 AUDIO
    TITLE "0:"
    INDEX 01 00:05:03
  TRACK 05 AUDIO
    TITLE "17:cjc019_7385"
    INDEX 01 00:05:56
  TRACK 06 AUDIO
    TITLE "0:"
    INDEX 01 00:06:67
  TRACK 07 AUDIO
    TITLE "16:cjc019_7386"
    INDEX 01 00:08:52
  TRACK 08 AUDIO
    TITLE "0:"
    INDEX 01 00:10:10
  TRACK 09 AUDIO
    TITLE "18:cjc019_7387"
    INDEX 01 00:10:68
  TRACK 10 AUDIO
    TITLE "0:"
    INDEX 01 00:11:68
  TRACK 11 AUDIO
    TITLE "17:cjc019_7388"
    INDEX 01 00:12:52
  TRACK 12 AUDIO
    TITLE "0:"
    INDEX 01 00:14:09
  TRACK 13 AUDIO
    TITLE "16:cjc019_7389"
    INDEX 01 00:15:70
  TRACK 14 AUDIO
    TITLE "0:"
    INDEX 01 00:17:16
  TRACK 15 AUDIO
    TITLE "18:cjc019_7390"
    INDEX 01 00:17:72
  TRACK 16 AUDIO
    TITLE "0:"
    INDEX 01 00:20:24
  TRACK 17 AUDIO
    TITLE "17:cjc019_7391"
    INDEX 01 00:21:04
  TRACK 18 AUDIO
    TITLE "0:"
    INDEX 01 00:22:30
  TRACK 19 AUDIO
    TITLE "16:cjc019_7392"
    INDEX 01 00:24:14
  TRACK 20 AUDIO
    TITLE "0:"
    INDEX 01 00:25:21
  TRACK 21 AUDIO
    TITLE "18:cjc019_7393"
    INDEX 01 00:26:07
  TRACK 22 AUDIO
    TITLE "0:"
    INDEX 01 00:28:35
  TRACK 23 AUDIO
    TITLE "17:cjc019_7394"
    INDEX 01 00:29:17
  TRACK 24 AUDIO
    TITLE "0:"
    INDEX 01 00:30:28
  TRACK 25 AUDIO
    TITLE "16:cjc019_7395"
    INDEX 01 00:32:13
  TRACK 26 AUDIO
    TITLE "0:"
    INDEX 01 00:33:26
  TRACK 27 AUDIO
    TITLE "18:cjc019_7396"
    INDEX 01 00:34:12
  TRACK 28 AUDIO
    TITLE "0:"
    INDEX 01 00:36:21
  TRACK 29 AUDIO
    TITLE "17:cjc019_7397"
    INDEX 01 00:37:05
  TRACK 30 AUDIO
    TITLE "0:"
    INDEX 01 00:38:16
  TRACK 31 AUDIO
    TITLE "16:cjc019_7398"
    INDEX 01 00:40:01
  TRACK 32 AUDIO
    TITLE "0:"
    INDEX 01 00:41:12
  TRACK 33 AUDIO
    TITLE "18:cjc019_7399"
    INDEX 01 00:41:65
  TRACK 34 AUDIO
    TITLE "0:"
    INDEX 01 00:43:07
  TRACK 35 AUDIO
    TITLE "17:cjc019_7400"
    INDEX 01 00:43:58
  TRACK 36 AUDIO
    TITLE "0:"
    INDEX 01 00:45:00
  TRACK 37 AUDIO
    TITLE "16:cjc019_7401"
    INDEX 01 00:46:62
  TRACK 38 AUDIO
    TITLE "0:"
    INDEX 01 00:48:18
  TRACK 39 AUDIO
    TITLE "18:cjc019_7402"
    INDEX 01 00:49:00
  TRACK 40 AUDIO
    TITLE "0:"
    INDEX 01 00:52:41
  TRACK 41 AUDIO
    TITLE "17:cjc019_7403"
    INDEX 01 00:53:21
  TRACK 42 AUDIO
    TITLE "0:"
    INDEX 01 00:54:50
  TRACK 43 AUDIO
    TITLE "16:cjc019_7404"
    INDEX 01 00:56:43
  TRACK 44 AUDIO
    TITLE "0:"
    INDEX 01 00:57:62
  TRACK 45 AUDIO
    TITLE "18:cjc019_7405"
    INDEX 01 00:58:48
  TRACK 46 AUDIO
    TITLE "0:"
    INDEX 01 01:04:05
  TRACK 47 AUDIO
    TITLE "17:cjc019_7406"
    INDEX 01 01:04:60
  TRACK 48 AUDIO
    TITLE "0:"
    INDEX 01 01:06:06
  TRACK 49 AUDIO
    TITLE "16:cjc019_7407"
    INDEX 01 01:07:66
  TRACK 50 AUDIO
    TITLE "0:"
    INDEX 01 01:09:16
  TRACK 51 AUDIO
    TITLE "18:cjc019_7408"
    INDEX 01 01:10:00
  TRACK 52 AUDIO
    TITLE "0:"
    INDEX 01 01:11:15
  TRACK 53 AUDIO
    TITLE "17:cjc019_7409"
    INDEX 01 01:11:74
  TRACK 54 AUDIO
    TITLE "0:"
    INDEX 01 01:13:24
  TRACK 55 AUDIO
    TITLE "16:cjc019_7410"
    INDEX 01 01:15:11
  TRACK 56 AUDIO
    TITLE "0:"
    INDEX 01 01:16:32
  TRACK 57 AUDIO
    TITLE "18:cjc019_7411"
    INDEX 01 01:17:02
  TRACK 58 AUDIO
    TITLE "0:"
    INDEX 01 01:21:51
  TRACK 59 AUDIO
    TITLE "17:cjc019_7412"
    INDEX 01 01:22:31
  TRACK 60 AUDIO
    TITLE "0:"
    INDEX 01 01:23:52
  TRACK 61 AUDIO
    TITLE "16:cjc019_7413"
    INDEX 01 01:25:27
  TRACK 62 AUDIO
    TITLE "0:"
    INDEX 01 01:26:50
  TRACK 63 AUDIO
    TITLE "18:cjc019_7414"
    INDEX 01 01:27:32
  TRACK 64 AUDIO
    TITLE "0:"
    INDEX 01 01:30:03
  TRACK 65 AUDIO
    TITLE "17:cjc019_7415"
    INDEX 01 01:30:56
  TRACK 66 AUDIO
    TITLE "0:"
    INDEX 01 01:32:12
  TRACK 67 AUDIO
    TITLE "16:cjc019_7416"
    INDEX 01 01:33:72
  TRACK 68 AUDIO
    TITLE "0:"
    INDEX 01 01:35:14
  TRACK 69 AUDIO
    TITLE "18:cjc019_7417"
    INDEX 01 01:36:00
  TRACK 70 AUDIO
    TITLE "0:"
    INDEX 01 01:38:49
  TRACK 71 AUDIO
    TITLE "17:cjc019_7418"
    INDEX 01 01:39:25
  TRACK 72 AUDIO
    TITLE "0:"
    INDEX 01 01:40:48
  TRACK 73 AUDIO
    TITLE "16:cjc019_7419"
    INDEX 01 01:42:35
  TRACK 74 AUDIO
    TITLE "0:"
    INDEX 01 01:43:51
  TRACK 75 AUDIO
    TITLE "18:cjc019_7420"
    INDEX 01 01:44:36
  TRACK 76 AUDIO
    TITLE "0:"
    INDEX 01 01:45:34
  TRACK 77 AUDIO
    TITLE "17:cjc019_7421"
    INDEX 01 01:46:16
  TRACK 78 AUDIO
    TITLE "0:"
    INDEX 01 01:47:29
  TRACK 79 AUDIO
    TITLE "16:cjc019_7422"
    INDEX 01 01:49:20
  TRACK 80 AUDIO
    TITLE "0:"
    INDEX 01 01:50:23
  TRACK 81 AUDIO
    TITLE "18:cjc019_7423"
    INDEX 01 01:50:74
  TRACK 82 AUDIO
    TITLE "0:"
    INDEX 01 01:53:08
  TRACK 83 AUDIO
    TITLE "17:cjc019_7424"
    INDEX 01 01:53:63
  TRACK 84 AUDIO
    TITLE "0:"
    INDEX 01 01:54:68
  TRACK 85 AUDIO
    TITLE "16:cjc019_7425"
    INDEX 01 01:56:53
  TRACK 86 AUDIO
    TITLE "0:"
    INDEX 01 01:57:70
  TRACK 87 AUDIO
    TITLE "18:cjc019_7426"
    INDEX 01 01:58:50
  TRACK 88 AUDIO
    TITLE "0:"
    INDEX 01 02:02:34
  TRACK 89 AUDIO
    TITLE "17:cjc019_7427"
    INDEX 01 02:03:22
  TRACK 90 AUDIO
    TITLE "0:"
    INDEX 01 02:04:35
  TRACK 91 AUDIO
    TITLE "16:cjc019_7428"
    INDEX 01 02:06:18
  TRACK 92 AUDIO
    TITLE "0:"
    INDEX 01 02:07:33
  TRACK 93 AUDIO
    TITLE "18:cjc019_7429"
    INDEX 01 02:08:19
  TRACK 94 AUDIO
    TITLE "0:"
    INDEX 01 02:10:42
  TRACK 95 AUDIO
    TITLE "17:cjc019_7430"
    INDEX 01 02:11:23
  TRACK 96 AUDIO
    TITLE "0:"
    INDEX 01 02:12:38
  TRACK 97 AUDIO
    TITLE "16:cjc019_7431"
    INDEX 01 02:14:26
  TRACK 98 AUDIO
    TITLE "0:"
    INDEX 01 02:15:56
  TRACK 99 AUDIO
    TITLE "18:cjc019_7432"
    INDEX 01 02:16:36
  TRACK 100 AUDIO
    TITLE "0:"
    INDEX 01 02:17:44
  TRACK 101 AUDIO
    TITLE "17:cjc019_7433"
    INDEX 01 02:18:19
  TRACK 102 AUDIO
    TITLE "0:"
    INDEX 01 02:19:48
  TRACK 103 AUDIO
    TITLE "16:cjc019_7434"
    INDEX 01 02:21:30
  TRACK 104 AUDIO
    TITLE "0:"
    INDEX 01 02:22:51
  TRACK 105 AUDIO
    TITLE "18:cjc019_7435"
    INDEX 01 02:23:32
  TRACK 106 AUDIO
    TITLE "0:"
    INDEX 01 02:25:35
  TRACK 107 AUDIO
    TITLE "17:cjc019_7436"
    INDEX 01 02:26:13
  TRACK 108 AUDIO
    TITLE "0:"
    INDEX 01 02:27:36
